<?xml version="1.0" standalone="no"?><!DOCTYPE svg PUBLIC "-//W3C//DTD SVG 1.1//EN" "http://www.w3.org/Graphics/SVG/1.1/DTD/svg11.dtd"><svg t="1512194191812" class="icon" style="" viewBox="0 0 1024 1024" version="1.1" xmlns="http://www.w3.org/2000/svg" p-id="2912" xmlns:xlink="http://www.w3.org/1999/xlink" width="100" height="100"><defs><style type="text/css"></style></defs><path d="M905.386667 516.437333 950.613333 516.437333C966.322765 516.437333 979.057778 503.70232 979.057778 487.992889 979.057778 472.283457 966.322765 459.548444 950.613333 459.548444L905.386667 459.548444C889.677235 459.548444 876.942222 472.283457 876.942222 487.992889 876.942222 503.70232 889.677235 516.437333 905.386667 516.437333L905.386667 516.437333ZM73.386667 516.437333 118.613333 516.437333C134.322766 516.437333 147.057778 503.70232 147.057778 487.992889 147.057778 472.283457 134.322766 459.548444 118.613333 459.548444L73.386667 459.548444C57.677234 459.548444 44.942222 472.283457 44.942222 487.992889 44.942222 503.70232 57.677234 516.437333 73.386667 516.437333L73.386667 516.437333Z" p-id="2913" fill="#f6ac49"></path><path d="M747.917966 862.050947C857.889761 783.141086 924.728889 654.186908 924.728889 513.763556 924.728889 493.713687 923.346187 473.748099 920.626992 453.848525L864.261897 461.550586C866.635435 478.92057 867.84 496.313956 867.84 513.763556 867.84 635.772521 809.900322 747.556793 714.752256 815.829942L747.917966 862.050947 747.917966 862.050947ZM103.37891 453.805579C100.634301 473.665442 99.242667 493.65023 99.242667 513.763556 99.242667 654.176114 166.100161 783.133855 276.082032 862.050947L309.247745 815.829942C214.087887 747.548334 156.131556 635.759553 156.131556 513.763556 156.131556 496.271926 157.342032 478.88869 159.732201 461.593532L103.37891 453.805579 103.37891 453.805579ZM804.154377 384.778721C846.827526 405.158118 867.84 427.467861 867.84 445.553778 867.84 500.332678 709.325352 558.762667 511.971556 558.762667 314.641471 558.762667 156.131556 500.331432 156.131556 445.553778 156.131556 426.899209 178.446031 403.834852 223.38032 383.086572L199.53168 331.437873C136.633688 360.480842 99.242667 399.128394 99.242667 445.553778 99.242667 547.225335 284.866579 615.651556 511.971556 615.651556 739.100911 615.651556 924.728889 547.227335 924.728889 445.553778 924.728889 400.198335 888.985298 362.248008 828.670512 333.443502L804.154377 384.778721 804.154377 384.778721ZM511.971556 159.914667C334.713074 159.914667 187.448889 252.569238 187.448889 374.641778L187.448889 374.698667 187.448889 392.799053 203.84547 400.46561C287.703722 439.675258 396.577291 461.624889 511.971556 461.624889 627.368604 461.624889 736.243703 439.68425 820.118337 400.497678L836.522667 392.833508 836.522667 374.727111 836.522667 374.641778C836.522667 252.571567 689.235234 159.914667 511.971556 159.914667L511.971556 159.914667ZM511.971556 216.803556C661.770408 216.803556 779.633778 290.950103 779.633778 374.641778L779.633778 374.727111 808.078222 374.727111 796.038107 348.956545C720.076925 384.445921 619.392333 404.736 511.971556 404.736 404.558239 404.736 303.8805 384.438704 227.941197 348.931723L215.893333 374.698667 244.337778 374.698667 244.337778 374.641778C244.337778 290.945605 362.178358 216.803556 511.971556 216.803556L511.971556 216.803556ZM275.315421 860.537751C339.787261 900.615694 423.449691 923.050667 511.971556 923.050667 600.523031 923.050667 684.188885 900.614775 748.632994 860.534454L762.055111 852.186709 762.055111 836.380444 762.055111 836.323556 705.166222 836.323556 705.166222 836.380444 733.610667 836.380444 718.588339 812.226435C663.447623 846.520613 590.203608 866.161778 511.971556 866.161778 433.766781 866.161778 360.522286 846.520485 305.349468 812.223138L275.315421 860.537751 275.315421 860.537751Z" p-id="2914" fill="#f6ac49"></path><path d="M429.454222 157.838222 597.703111 157.838222C613.412543 157.838222 626.147556 145.103211 626.147556 129.393778 626.147556 113.684345 613.412543 100.949333 597.703111 100.949333L429.454222 100.949333C413.744791 100.949333 401.009778 113.684345 401.009778 129.393778 401.009778 145.103211 413.744791 157.838222 429.454222 157.838222L429.454222 157.838222Z" p-id="2915" fill="#f6ac49"></path></svg>