<?xml version="1.0" standalone="no"?><!DOCTYPE svg PUBLIC "-//W3C//DTD SVG 1.1//EN" "http://www.w3.org/Graphics/SVG/1.1/DTD/svg11.dtd"><svg t="1511760005594" class="icon" style="" viewBox="0 0 1024 1024" version="1.1" xmlns="http://www.w3.org/2000/svg" p-id="15705" xmlns:xlink="http://www.w3.org/1999/xlink" width="100" height="100"><defs><style type="text/css"></style></defs><path d="M1025.4518512096392 812.029093599763H183.02848188618276c-24.965601649145682 0-48.38466243950617-9.721118962725928-65.83848957977283-27.395881066192594-17.45382843480494-17.674762103466666-27.17494739753086-40.87288793062716-26.954013728869135-65.83849087431109l3.093084306646914-620.3841649777778c0-24.744667980483953-8.61644673580247-41.31475785702716-51.47774674615309-48.16372747630617h-0.22093366866172837l-123.72333860788147-21.20971504197531c-11.93046471111111-1.988410785185185-20.10504281505185-13.477006864434568-18.116630735328393-25.40747157554568 1.988410785185185-11.93046471111111 13.477006864434568-20.10504281505185 25.407470281007406-18.116632029866665l123.50240364468146 21.20971504197531c58.768584997293836 9.279250330864194 88.59474677507161 40.210084335565426 88.59474677507161 91.90876604491851L134.20195081481478 719.2365902911209c0 13.035136938034565 4.860560128632098 25.186536612345677 14.139810459496294 34.24485327454815 9.279250330864194 9.279250330864194 21.43065000517531 14.360744128158023 34.46578694320988 14.360744128158023h842.4233693234567c12.15139967431111 0 22.09345360023703 9.942053925925928 22.093452305698765 22.09345360023703s-9.721118962725928 22.09345360023703-21.872518637037036 22.093452305698765z" fill="#000000" p-id="15706"></path><path d="M962.4855096787753 685.2126732743111l-780.1198313876544-2.430280711585185c-24.523733017283952-0.22093496319999997-47.50092388124445-9.721118962725928-64.73381735284939-27.17494739753086-17.23289347160494-17.45382843480494-26.51214380246913-40.43101929876542-26.51214380246913-64.95475231604938l2.430279417046913-458.21821785631596L976.1834515064099 198.27296457260246c39.9891506669037 1.546542153323457 71.36185330346666 34.02391831134815 71.36185330346666 74.01306897825184V600.3738131064099c0 46.838120286182715-38.221673550380245 84.83886016790125-85.05979513110123 84.83886016790125zM182.80754821752095 638.5954866567901l779.8988964244544 2.430279417046913c22.535322232098764 0 40.87288793062716-18.337565698528394 40.87288793062716-40.651952967427164V272.2860335508542c0-16.12822124468148-12.814203269372838-29.38429314591605-28.94242321951605-29.826161777777777h-0.8837385582617283l-835.7953333728393-62.30353793580245-1.988410785185185 410.93822893827155c0 12.593268306172838 4.860560128632098 24.523733017283952 13.697941827634567 33.582048384948145 8.395511772602468 8.837381699002469 20.325976483713582 13.918875496296295 33.14017975308642 13.918875496296295z" fill="#000000" p-id="15707"></path><path d="M268.75108061234573 884.937489056553m-82.40858075085433 0a82.40858075085433 82.40858075085433 0 1 0 164.81716150170865 0 82.40858075085433 82.40858075085433 0 1 0-164.81716150170865 0Z" fill="#000000" p-id="15708"></path><path d="M268.75108061234573 989.4395234076444c-57.66391277037036 0-104.50203305655309-46.838120286182715-104.50203305655309-104.50203435109135s46.838120286182715-104.50203305655309 104.50203305655309-104.50203305655309c57.66391277037036 0 104.50203305655309 46.838120286182715 104.50203305655309 104.50203305655309s-46.838120286182715 104.50203305655309-104.50203305655309 104.50203435109135z m0-164.81716150170865c-33.361114716286416 0-60.31512715061727 26.954012434330863-60.31512715061727 60.31512715061727s26.954012434330863 60.31512715061727 60.31512715061727 60.31512715061727 60.31512715061727-26.954012434330863 60.31512715061727-60.31512715061727-26.954012434330863-60.31512715061727-60.31512715061727-60.31512715061727z" fill="#000000" p-id="15709"></path><path d="M901.2866452644346 884.937489056553m-82.40858075085433 0a82.40858075085433 82.40858075085433 0 1 0 164.81716020717036 0 82.40858075085433 82.40858075085433 0 1 0-164.81716020717036 0Z" fill="#000000" p-id="15710"></path><path d="M901.2866452644346 989.4395234076444c-57.66391277037036 0-104.50203305655309-46.838120286182715-104.50203435109135-104.50203435109135s46.838120286182715-104.50203305655309 104.50203435109135-104.50203305655309 104.50203305655309 46.838120286182715 104.50203305655309 104.50203305655309-46.838120286182715 104.50203305655309-104.50203305655309 104.50203435109135z m0-164.81716150170865c-33.361114716286416 0-60.31512715061727 26.954012434330863-60.31512715061727 60.31512715061727s26.954012434330863 60.31512715061727 60.31512715061727 60.31512715061727 60.31512715061727-26.954012434330863 60.31512715061727-60.31512715061727-26.954012434330863-60.31512715061727-60.31512715061727-60.31512715061727z" fill="#000000" p-id="15711"></path><path d="M768.7259262520888 390.265073471842H318.46135024197525c-12.15139967431111 0-22.09345360023703-9.942053925925928-22.09345360023703-22.09345360023703s9.942053925925928-22.09345360023703 22.09345360023703-22.09345360023703h450.2645760101135c12.15139967431111 0 22.09345360023703 9.942053925925928 22.093452305698765 22.09345360023703s-9.942053925925928 22.09345360023703-22.093452305698765 22.09345360023703zM768.7259262520888 517.3024287604937H318.46135024197525c-12.15139967431111 0-22.09345360023703-9.942053925925928-22.09345360023703-22.09345360023703s9.942053925925928-22.09345360023703 22.09345360023703-22.093452305698765h450.2645760101135c12.15139967431111 0 22.09345360023703 9.942053925925928 22.093452305698765 22.093452305698765s-9.942053925925928 22.09345360023703-22.093452305698765 22.09345360023703z" fill="#000000" p-id="15712"></path></svg>