<?xml version="1.0" standalone="no"?><!DOCTYPE svg PUBLIC "-//W3C//DTD SVG 1.1//EN" "http://www.w3.org/Graphics/SVG/1.1/DTD/svg11.dtd"><svg t="1513222588335" class="icon" style="" viewBox="0 0 1024 1024" version="1.1" xmlns="http://www.w3.org/2000/svg" p-id="4228" xmlns:xlink="http://www.w3.org/1999/xlink" width="100" height="100"><defs><style type="text/css"></style></defs><path d="M841.063606 27.676214l-47.878893 359.78359H232.752583L184.87369 27.676214h656.189916m15.775127-27.67566H168.821807a13.83783 13.83783 0 0 0-13.83783 15.775126l51.753485 387.45925a13.83783 13.83783 0 0 0 13.837831 11.900534h584.509954a13.83783 13.83783 0 0 0 13.83783-11.900534l51.753486-387.45925a13.83783 13.83783 0 0 0-13.83783-15.775126z" p-id="4229" fill="#f6ac49"></path><path d="M788.756607 415.135464v285.059306l-276.756607 100.739405-276.756607-100.739405V415.135464h553.513214m13.837831-27.67566h-581.188876a13.83783 13.83783 0 0 0-13.83783 13.83783v308.583617a13.83783 13.83783 0 0 0 9.132968 13.00756l290.594438 105.721024a13.83783 13.83783 0 0 0 9.409724 0l290.594438-105.721024a13.83783 13.83783 0 0 0 9.132968-13.00756V401.297634a13.83783 13.83783 0 0 0-13.83783-13.83783z" p-id="4230" fill="#f6ac49"></path><path d="M207.567732 470.486786v93.543733l-55.351321-27.675661V470.486786h55.351321m13.83783-27.675661h-83.026982a13.83783 13.83783 0 0 0-13.83783 13.83783v88.285358a13.83783 13.83783 0 0 0 7.749185 12.454047l83.026982 41.513491a13.83783 13.83783 0 0 0 19.926476-12.454047V456.648955a13.83783 13.83783 0 0 0-13.837831-13.83783z" p-id="4231" fill="#f6ac49"></path><path d="M402.127627 470.486786l27.675661 0 0 55.351321-27.675661 0 0-55.351321Z" p-id="4232" fill="#f6ac49"></path><path d="M595.857252 470.486786l27.675661 0 0 55.351321-27.675661 0 0-55.351321Z" p-id="4233" fill="#f6ac49"></path><path d="M485.154609 802.594714h55.351322v55.351322h-55.351322z" p-id="4234" fill="#f6ac49"></path><path d="M402.127627 0.000554l0 166.053964-27.675661 0 0-166.053964 27.675661 0Z" p-id="4235" fill="#f6ac49"></path><path d="M871.783589 470.486786v65.868072l-55.351321 27.675661V470.486786h55.351321m13.837831-27.675661h-83.026982a13.83783 13.83783 0 0 0-13.837831 13.83783v129.798849a13.83783 13.83783 0 0 0 19.926476 12.454047l83.026982-41.513491a13.83783 13.83783 0 0 0 7.749185-12.454047V456.648955a13.83783 13.83783 0 0 0-13.83783-13.83783z" p-id="4236" fill="#f6ac49"></path><path d="M651.208573 0.000554l0 166.053964-27.67566 0 0-166.053964 27.67566 0Z" p-id="4237" fill="#f6ac49"></path><path d="M60.88673 945.124367a13.83783 13.83783 0 0 1 10.516751-9.132968l415.134911-77.768607h53.137269l422.884095 79.429147 19.926476 86.348061h27.675661l-25.184851-102.953458a13.83783 13.83783 0 0 0-10.516751-9.132968l-432.570577-81.366442h-57.565375L50.369979 911.913574a13.83783 13.83783 0 0 0-10.516751 9.132968L13.838107 1024h27.675661" p-id="4238" fill="#f6ac49"></path><path d="M374.451966 857.946036l27.675661 0 0 166.053964-27.675661 0 0-166.053964Z" p-id="4239" fill="#f6ac49"></path><path d="M428.973018 678.054241a13.83783 13.83783 0 0 1-7.749185-2.490809l-83.026982-55.351322a13.83783 13.83783 0 0 1 15.49837-22.970798l75.277797 50.092946 75.00104-75.831311a13.83783 13.83783 0 0 1 8.025942-4.151349 13.83783 13.83783 0 0 1 9.686481 4.151349l75.001041 75.277797 73.617257-49.262676a13.83783 13.83783 0 0 1 15.49837 22.970799l-83.026982 55.351321a13.83783 13.83783 0 0 1-17.435666-1.660539l-73.340501-73.340501-73.340501 74.17077a13.83783 13.83783 0 0 1-9.686481 3.044323z" p-id="4240" fill="#f6ac49"></path></svg>