<?xml version="1.0" standalone="no"?><!DOCTYPE svg PUBLIC "-//W3C//DTD SVG 1.1//EN" "http://www.w3.org/Graphics/SVG/1.1/DTD/svg11.dtd"><svg t="1513224771838" class="icon" style="" viewBox="0 0 1024 1024" version="1.1" xmlns="http://www.w3.org/2000/svg" p-id="8227" xmlns:xlink="http://www.w3.org/1999/xlink" width="100" height="100"><defs><style type="text/css"></style></defs><path d="M792.119839 961.082018 232.249575 961.082018c-61.84044 0-111.971188-50.125631-111.971188-111.971188L120.278387 289.24466c0-61.845557 50.130747-111.979374 111.971188-111.979374l83.980693 0 0-55.984059 75.403341 0c24.245194-33.332153 68.877717-55.990199 120.55161-55.990199 51.67594 0 96.308463 22.658046 120.553657 55.990199l75.400271 0 0 55.984059 83.980693 0c61.84044 0 111.974257 50.133817 111.974257 111.979374l0 559.867194C904.093073 910.957411 853.960279 961.082018 792.119839 961.082018zM652.152017 177.264263l-62.206784 0c0-30.919197-34.812877-55.984059-77.760015-55.984059-42.945091 0-77.760015 25.064862-77.760015 55.984059l-62.204737 0 0 111.979374 279.93155 0L652.152017 177.264263zM848.105944 289.24466c0-30.919197-25.065885-55.990199-55.987129-55.990199l-83.980693 0 0 111.974257L316.230268 345.228719 316.230268 233.254461l-83.980693 0c-30.921243 0-55.984059 25.071002-55.984059 55.990199l0 559.867194c0 30.919197 25.062815 55.990199 55.984059 55.990199l559.869241 0c30.921243 0 55.987129-25.071002 55.987129-55.990199L848.105944 289.24466zM708.139146 793.123702 316.230268 793.123702c-15.461133 0-27.990494-12.532431-27.990494-27.993564 0-15.461133 12.530384-27.996634 27.990494-27.996634l391.908878 0c15.461133 0 27.993564 12.535501 27.993564 27.996634C736.13271 780.591271 723.600279 793.123702 708.139146 793.123702zM708.139146 653.156904 316.230268 653.156904c-15.461133 0-27.990494-12.535501-27.990494-27.993564 0-15.461133 12.530384-27.996634 27.990494-27.996634l391.908878 0c15.461133 0 27.993564 12.535501 27.993564 27.996634C736.13271 640.621403 723.600279 653.156904 708.139146 653.156904zM708.139146 513.189082 316.230268 513.189082c-15.461133 0-27.990494-12.535501-27.990494-27.990494 0-15.46318 12.530384-27.998681 27.990494-27.998681l391.908878 0c15.461133 0 27.993564 12.535501 27.993564 27.998681C736.13271 500.653581 723.600279 513.189082 708.139146 513.189082z" p-id="8228" fill="#ffffff"></path></svg>