<?xml version="1.0" standalone="no"?><!DOCTYPE svg PUBLIC "-//W3C//DTD SVG 1.1//EN" "http://www.w3.org/Graphics/SVG/1.1/DTD/svg11.dtd"><svg t="1511751211375" class="icon" style="" viewBox="0 0 1024 1024" version="1.1" xmlns="http://www.w3.org/2000/svg" p-id="3494" xmlns:xlink="http://www.w3.org/1999/xlink" width="200" height="200"><defs><style type="text/css"></style></defs><path d="M759.549026 142.479015 580.902276 142.479015c-2.843768-13.69286-14.976086-23.983227-29.512151-23.983227l-2.249227 0 0-7.362688c0-25.417903-20.678972-46.096874-46.096874-46.096874l-40.200584 0c-25.417903 0-46.096874 20.678972-46.096874 46.096874l0 7.362688-2.857071 0c-14.537088 0-26.668383 10.290367-29.512151 23.983227L205.730595 142.479015c-28.349675 0-51.413973 23.064298-51.413973 51.41295l0 714.400756c0 28.349675 23.064298 51.413973 51.413973 51.413973l553.818431 0c28.349675 0 51.41295-23.064298 51.41295-51.413973l0-714.400756C810.961976 165.543314 787.898701 142.479015 759.549026 142.479015zM448.64916 111.1331c0-7.826246 6.367011-14.193257 14.193257-14.193257l40.200584 0c7.826246 0 14.193257 6.367011 14.193257 14.193257l0 7.362688-68.587098 0L448.64916 111.1331zM768.42416 908.293745c0 4.894474-3.981684 8.876158-8.875135 8.876158L205.730595 917.169903c-4.894474 0-8.876158-3.981684-8.876158-8.876158l0-714.400756c0-4.894474 3.981684-8.876158 8.876158-8.876158L383.743918 185.016831l0 0.63445c0 16.648169 13.496385 30.144554 30.144554 30.144554l137.500631 0c16.648169 0 30.144554-13.496385 30.144554-30.144554l0-0.63445 178.014346 0c4.89345 0 8.875135 3.981684 8.875135 8.876158L768.423137 908.293745z" p-id="3495" fill="#ffffff"></path><path d="M675.645081 361.178993 447.548082 361.178993c-10.130731 0-18.343787 8.213056-18.343787 18.343787 0 10.130731 8.213056 18.343787 18.343787 18.343787l228.096998 0c10.130731 0 18.343787-8.213056 18.343787-18.343787C693.988868 369.392048 685.775812 361.178993 675.645081 361.178993z" p-id="3496" fill="#ffffff"></path><path d="M675.645081 493.640863 447.548082 493.640863c-10.130731 0-18.343787 8.213056-18.343787 18.343787s8.213056 18.343787 18.343787 18.343787l228.096998 0c10.130731 0 18.343787-8.213056 18.343787-18.343787S685.775812 493.640863 675.645081 493.640863z" p-id="3497" fill="#ffffff"></path><path d="M675.645081 632.343879 447.548082 632.343879c-10.130731 0-18.343787 8.213056-18.343787 18.343787 0 10.130731 8.213056 18.343787 18.343787 18.343787l228.096998 0c10.130731 0 18.343787-8.213056 18.343787-18.343787C693.988868 640.555911 685.775812 632.343879 675.645081 632.343879z" p-id="3498" fill="#ffffff"></path><path d="M675.645081 764.80575 447.548082 764.80575c-10.130731 0-18.343787 8.213056-18.343787 18.343787s8.213056 18.343787 18.343787 18.343787l228.096998 0c10.130731 0 18.343787-8.213056 18.343787-18.343787S685.775812 764.80575 675.645081 764.80575z" p-id="3499" fill="#ffffff"></path><path d="M367.083469 334.00919l-45.694715 45.694715-28.027333-28.027333c-4.750187-4.750187-12.452613-4.750187-17.202801 0-4.750187 4.750187-4.750187 12.452613 0 17.202801l36.481889 36.481889c2.411933 2.411933 5.586229 3.593851 8.747221 3.555989 3.162016 0.037862 6.335289-1.143033 8.747221-3.555989l54.150294-54.150294c4.750187-4.750187 4.750187-12.452613 0-17.202801C379.536083 329.259002 371.833657 329.259002 367.083469 334.00919z" p-id="3500" fill="#ffffff"></path><path d="M367.083469 475.127208l-45.694715 45.694715-28.027333-28.027333c-4.750187-4.750187-12.452613-4.750187-17.202801 0-4.750187 4.750187-4.750187 12.452613 0 17.202801l36.481889 36.481889c2.411933 2.411933 5.586229 3.593851 8.747221 3.555989 3.162016 0.037862 6.335289-1.143033 8.747221-3.555989l54.150294-54.150294c4.750187-4.750187 4.750187-12.452613 0-17.202801C379.536083 470.37702 371.833657 470.37702 367.083469 475.127208z" p-id="3501" fill="#ffffff"></path><path d="M330.222957 649.933489m-29.776164 0a29.098 29.098 0 1 0 59.552328 0 29.098 29.098 0 1 0-59.552328 0Z" p-id="3502" fill="#ffffff"></path><path d="M330.222957 787.116895m-29.776164 0a29.098 29.098 0 1 0 59.552328 0 29.098 29.098 0 1 0-59.552328 0Z" p-id="3503" fill="#ffffff"></path></svg>