<?xml version="1.0" standalone="no"?><!DOCTYPE svg PUBLIC "-//W3C//DTD SVG 1.1//EN" "http://www.w3.org/Graphics/SVG/1.1/DTD/svg11.dtd"><svg t="1511751260540" class="icon" style="" viewBox="0 0 1024 1024" version="1.1" xmlns="http://www.w3.org/2000/svg" p-id="4360" xmlns:xlink="http://www.w3.org/1999/xlink" width="200" height="200"><defs><style type="text/css"></style></defs><path d="M681.984 141.312H351.232v-36.864h330.752v36.864z" p-id="4361" fill="#ffffff"></path><path d="M788.48 1024H245.76c-84.992 0-153.6-69.632-153.6-154.624V258.048c0-84.992 68.608-154.624 153.6-154.624h15.36v36.864H245.76c-64.512 0-116.736 53.248-116.736 117.76v611.328c0 64.512 52.224 117.76 116.736 117.76h542.72c64.512 0 116.736-53.248 116.736-117.76V258.048c0-64.512-52.224-117.76-116.736-117.76h-15.36v-36.864H788.48c84.992 0 153.6 69.632 153.6 154.624v611.328c0 84.992-69.632 154.624-153.6 154.624z" p-id="4362" fill="#ffffff"></path><path d="M728.064 220.16c-34.816 0-63.488-27.648-63.488-61.44V61.44c0-33.792 28.672-61.44 63.488-61.44 34.816 0 63.488 27.648 63.488 61.44v97.28c0 33.792-28.672 61.44-63.488 61.44z m0-183.296c-14.336 0-26.624 11.264-26.624 24.576v97.28c0 13.312 12.288 24.576 26.624 24.576s26.624-11.264 26.624-24.576V61.44c0-13.312-12.288-24.576-26.624-24.576zM306.176 220.16c-34.816 0-63.488-27.648-63.488-61.44V61.44c0-33.792 28.672-61.44 63.488-61.44 34.816 0 63.488 27.648 63.488 61.44v97.28c0 33.792-27.648 61.44-63.488 61.44z m0-183.296c-14.336 0-26.624 11.264-26.624 24.576v97.28c0 13.312 12.288 24.576 26.624 24.576 14.336 0 26.624-11.264 26.624-24.576V61.44c1.024-13.312-11.264-24.576-26.624-24.576zM749.568 451.584H284.672c-3.072 0-6.144-3.072-6.144-6.144s3.072-6.144 6.144-6.144h464.896c3.072 0 6.144 3.072 6.144 6.144 0 4.096-3.072 6.144-6.144 6.144zM749.568 635.904H284.672c-3.072 0-6.144-3.072-6.144-6.144s3.072-6.144 6.144-6.144h464.896c3.072 0 6.144 3.072 6.144 6.144s-3.072 6.144-6.144 6.144zM749.568 822.272H284.672c-3.072 0-6.144-3.072-6.144-6.144s3.072-6.144 6.144-6.144h464.896c3.072 0 6.144 3.072 6.144 6.144 0 4.096-3.072 6.144-6.144 6.144z" p-id="4363" fill="#ffffff"></path></svg>