<?xml version="1.0" standalone="no"?><!DOCTYPE svg PUBLIC "-//W3C//DTD SVG 1.1//EN" "http://www.w3.org/Graphics/SVG/1.1/DTD/svg11.dtd"><svg t="1513222456456" class="icon" style="" viewBox="0 0 1024 1024" version="1.1" xmlns="http://www.w3.org/2000/svg" p-id="2366" xmlns:xlink="http://www.w3.org/1999/xlink" width="100" height="100"><defs><style type="text/css"></style></defs><path d="M128 449.792c0 12.373 9.003 34.133 17.707 42.837l428.33 428.331c-0.042-0.021 346.838-346.795 346.838-346.795L492.629 145.707c-8.618-8.64-30.528-17.707-42.837-17.707H128.149L128 449.792zM85.333 128.149c0-23.637 19.094-42.816 42.816-42.816h321.643c23.637 0 56.405 13.59 73.024 30.208l428.31 428.31c16.682 16.682 16.64 43.754-0.065 60.48l-346.73 346.73a42.816 42.816 0 0 1-60.48 0.064L115.54 522.816c-16.682-16.683-30.208-49.301-30.208-73.024V128.149zM320 426.667a106.667 106.667 0 1 1 0-213.334 106.667 106.667 0 0 1 0 213.334zM320 384a64 64 0 1 0 0-128 64 64 0 0 0 0 128z" p-id="2367" fill="#f6ac49"></path></svg>