<?xml version="1.0" standalone="no"?><!DOCTYPE svg PUBLIC "-//W3C//DTD SVG 1.1//EN" "http://www.w3.org/Graphics/SVG/1.1/DTD/svg11.dtd"><svg t="1512194018760" class="icon" style="" viewBox="0 0 1024 1024" version="1.1" xmlns="http://www.w3.org/2000/svg" p-id="1483" xmlns:xlink="http://www.w3.org/1999/xlink" width="100" height="100"><defs><style type="text/css"></style></defs><path d="M455.377694 503.842549 204.89597 503.842549c-11.516401 19.194002 2.8791 158.350515 133.398313 158.350515C452.498594 663.152765 466.894096 523.996251 455.377694 503.842549z" p-id="1484" fill="#ffffff"></path><path d="M355.568885 940.506092 355.568885 699.621368c84.453608-15.355201 148.753515-99.80881 148.753515-201.53702 0-40.307404-9.597001-79.655108-28.791003-113.244611l-4.7985-7.677601L187.621368 377.162137l-4.7985 7.677601c-19.194002 33.589503-28.791003 72.937207-28.791003 113.244611 0 102.68791 65.259606 188.101218 150.672915 202.49672L304.70478 940.506092c-48.944705 1.9194-85.413308 9.597001-85.413308 18.234302 0 10.556701 49.904405 19.194002 111.325211 19.194002 61.420806 0 111.325211-8.637301 111.325211-19.194002C440.982193 950.103093 404.51359 943.385192 355.568885 940.506092zM184.742268 498.084349c0-31.670103 6.717901-62.380506 21.113402-89.252109l246.642924 0c13.435801 26.871603 21.113402 57.582006 21.113402 89.252109 0 95.970009-64.299906 172.746017-143.955014 172.746017C250.001874 670.830366 184.742268 594.054358 184.742268 498.084349z" p-id="1485" fill="#ffffff"></path><path d="M626.204311 46.065604l119.002812 0 0 102.68791-119.002812 0 0-102.68791Z" p-id="1486" fill="#ffffff"></path><path d="M745.207123 276.393627l0-95.970009L626.204311 180.423618l0 95.970009c-49.904405 23.032802-85.413308 72.937207-85.413308 131.478913l0 94.050609 0 299.426429 0 176.584817 288.869728 0L829.660731 802.309278 829.660731 501.923149l0-94.050609C830.620431 349.330834 795.111528 299.426429 745.207123 276.393627zM821.98313 510.56045l0 283.111528L549.428304 793.671978 549.428304 510.56045 821.98313 510.56045z" p-id="1487" fill="#ffffff"></path></svg>