<?xml version="1.0" standalone="no"?><!DOCTYPE svg PUBLIC "-//W3C//DTD SVG 1.1//EN" "http://www.w3.org/Graphics/SVG/1.1/DTD/svg11.dtd"><svg t="1514435832991" class="icon" style="" viewBox="0 0 1024 1024" version="1.1" xmlns="http://www.w3.org/2000/svg" p-id="1891" xmlns:xlink="http://www.w3.org/1999/xlink" width="200" height="200"><defs><style type="text/css"></style></defs><path d="M389.44 66.656l297.152 149.664v174.688h174.72v548.992H137.44V216.32l252-149.664m0-64c-11.328 0-22.624 3.008-32.672 8.96L104.768 161.28a64 64 0 0 0-31.328 55.04V940a64 64 0 0 0 64 64H861.312a64 64 0 0 0 64-64V391.008a64 64 0 0 0-64-64h-110.72V216.32c0-24.16-13.632-46.272-35.2-57.152L418.24 9.504a63.968 63.968 0 0 0-28.8-6.848z" p-id="1892" fill="#f6ac49"></path><path d="M688 881.12h128v-127.968h-128v127.968z m0-383.904v127.968h128v-127.968h-128z m-512 383.904h128v-127.968h-128v127.968z m0-639.84v127.968h128V241.28h-128z m0 383.904h128v-127.968h-128v127.968z m256-255.936h128V241.28h-128v127.968z m0 255.936h128v-127.968h-128v127.968z m0 255.936h128v-127.968h-128v127.968z" p-id="1893" fill="#f6ac49"></path></svg>