<?xml version="1.0" standalone="no"?><!DOCTYPE svg PUBLIC "-//W3C//DTD SVG 1.1//EN" "http://www.w3.org/Graphics/SVG/1.1/DTD/svg11.dtd"><svg t="1513221876620" class="icon" style="" viewBox="0 0 1024 1024" version="1.1" xmlns="http://www.w3.org/2000/svg" p-id="1596" xmlns:xlink="http://www.w3.org/1999/xlink" width="100" height="100"><defs><style type="text/css"></style></defs><path d="M512 0C229.2 0 0 229.2 0 512s229.2 512 512 512 512-229.2 512-512S794.8 0 512 0z m0 977.5C255.3 977.5 46.5 768.7 46.5 512S255.3 46.5 512 46.5 977.5 255.3 977.5 512 768.7 977.5 512 977.5z" fill="#ffffff" p-id="1597"></path><path d="M597.4 756.3H457.2c-39.9 0-46.7-3.1-46.7-19.3v-90.4H370v91c0 43.6 18.1 53.6 85.4 53.6H600c54.8 0 67.9-16.2 73.5-84.8-11.8-2.5-27.4-8.1-37.4-14.3-2.6 56.1-8.2 64.2-38.7 64.2zM252.7 573.1l1.9 36.8c113.4-1.2 290.4-4.4 456.2-8.1 17.4 12.5 33 24.9 43.6 36.1l28-24.3c-32.4-29.9-96.6-69.8-152.1-91.6l-26.8 20.6C622.3 550 641 560 659.7 570c-42.4 0.6-85.4 1.3-126.5 1.3v-50.5h200.1v-172H533.2v-42.4h243.7v-34.3H533.2v-39.3h-41.8v39.3H254v34.3h237.5v42.4H297v172h194.4v51.1c-92.2 0.6-175.7 1.2-238.7 1.2z m280.5-195.7h159.5v43H533.2v-43z m0 70.4h159.5v44.3H533.2v-44.3z m-196.9-70.4h155.2v43H336.3v-43z m0 114.7v-44.3h155.2v44.3H336.3zM239.7 760.7l35.5 20c24.9-32.4 44.3-82.9 58-122.2l-34.9-13.7c-12.5 36.7-33.7 86.6-58.6 115.9zM673.4 657.2c29.9 36.8 61.1 86 74.2 117.2l36.8-13.7c-13.1-32.4-45.5-80.4-76-115.9l-35 12.4z" fill="#ffffff" p-id="1598"></path><path d="M563.1 709.6l26.8-26.8c-22.4-21.2-68.6-49.9-107.2-66.7l-25.6 22.4c38.1 18.7 83.6 48.6 106 71.1z" fill="#ffffff" p-id="1599"></path></svg>