<?xml version="1.0" standalone="no"?><!DOCTYPE svg PUBLIC "-//W3C//DTD SVG 1.1//EN" "http://www.w3.org/Graphics/SVG/1.1/DTD/svg11.dtd"><svg t="1513903332332" class="icon" style="" viewBox="0 0 1024 1024" version="1.1" xmlns="http://www.w3.org/2000/svg" p-id="3426" xmlns:xlink="http://www.w3.org/1999/xlink" width="100" height="100"><defs><style type="text/css"></style></defs><path d="M219.52 460.736a71.04 71.04 0 1 0 142.208-0.128A71.04 71.04 0 0 0 219.52 460.8M434.432 460.736a71.04 71.04 0 1 0 142.08 0 71.04 71.04 0 0 0-142.08 0M663.68 460.736a71.04 71.04 0 1 0 142.08 0 71.04 71.04 0 0 0-142.08 0" fill="#f6ac49" p-id="3427"></path><path d="M512 33.728C236.096 33.728 12.416 225.408 12.416 451.968c0 127.808 92.16 260.672 204.352 339.392 1.216 2.688 2.624 5.824 4.352 9.344l27.072 166.144c8.64 15.168 23.616 23.808 37.696 23.424a48.896 48.896 0 0 0 24.192-5.76l226.944-104.064c6.72-2.56 13.824-4.672 21.184-6.784 270.72 1.024 453.312-197.376 453.312-414.784C1011.584 232.256 787.904 33.728 512 33.728z m13.12 781.76c-7.488 0-21.504 1.472-27.328 3.84s-199.936 91.648-199.936 91.648-13.12-136.448-15.104-144.832c-1.472-6.4-4.032-8.576-4.032-8.576-105.92-67.2-195.328-188.736-195.328-304.768 0-194.368 191.872-349.248 428.608-349.248s428.608 161.728 428.608 356.096c0 194.496-178.752 355.84-415.488 355.84z" fill="#f6ac49" p-id="3428"></path></svg>