<?xml version="1.0" standalone="no"?><!DOCTYPE svg PUBLIC "-//W3C//DTD SVG 1.1//EN" "http://www.w3.org/Graphics/SVG/1.1/DTD/svg11.dtd"><svg t="1512197913073" class="icon" style="" viewBox="0 0 1024 1024" version="1.1" xmlns="http://www.w3.org/2000/svg" p-id="17288" xmlns:xlink="http://www.w3.org/1999/xlink" width="100" height="100"><defs><style type="text/css"></style></defs><path d="M930.850133 409.6C874.5984 181.026133 643.720533 41.335467 415.146667 97.5872 236.765867 141.482667 106.581333 294.724267 92.1088 477.866667l-34.133333 0C76.612267 224.290133 297.2672 33.8432 550.843733 52.462933 752.708267 67.293867 921.1904 212.224 966.0416 409.6L930.850133 409.6zM335.6672 595.3024c24.439467 41.7792 32.955733 90.999467 23.9616 138.564267l-35.669333 0c10.0864-40.430933 3.8912-83.2-17.2544-119.0912-34.696533-63.505067-139.025067-68.522667-139.025067-68.522667s-48.059733 97.962667-13.3632 161.467733C159.368533 716.9024 165.1712 725.6576 171.690667 733.866667L129.655467 733.866667c-2.338133-3.6864-4.676267-7.3728-6.826667-11.264C77.585067 641.416533 147.319467 512 147.319467 512S290.423467 514.116267 335.6672 595.3024zM212.599467 589.585067 283.869867 733.866667l-37.9904 0-62.8224-127.232L212.599467 589.585067zM909.602133 802.133333l-34.730667 0c-48.878933 60.2112-112.093867 107.1616-183.8592 136.533333l47.9232 0 0 34.133333-443.733333 0 0-34.133333 47.9232 0c-71.765333-29.371733-134.980267-76.322133-183.8592-136.533333L124.535467 802.133333l0-34.133333 785.066667 0L909.602133 802.133333zM204.868267 802.133333c159.453867 172.424533 428.475733 182.954667 600.917333 23.5008 8.1408-7.5264 15.9744-15.36 23.5008-23.5008L204.868267 802.133333zM883.234133 526.728533l-93.5936 93.5936c-2.474667-12.288-6.997333-24.081067-13.397333-34.8672l82.8416-82.8416L883.234133 526.728533zM932.010667 455.424c0 0 41.984 149.265067-34.7136 225.962667-19.848533 20.1216-42.0864 37.751467-66.2016 52.48l-47.786667 0c1.399467-6.1952 3.1232-12.3904 4.2496-18.551467 30.532267-13.8752 58.2656-33.245867 81.783467-57.156267 62.0032-61.986133 33.672533-173.7728 33.672533-173.7728s-111.7696-28.330667-173.789867 33.672533c-2.218667 2.218667-4.317867 4.539733-6.468267 6.826667-9.1648-7.867733-18.9952-14.9504-29.3888-21.128533 4.010667-4.625067 8.192-9.181867 12.612267-13.653333C782.7456 413.457067 932.010667 455.441067 932.010667 455.424L932.010667 455.424zM661.384533 640.904533 555.502933 733.866667l-51.626667 0 133.376-117.0944L661.384533 640.904533zM719.4112 557.7728c0 0 26.794667 106.120533-11.195733 176.093867L665.429333 733.866667c46.8992-51.2 26.180267-147.5584 26.180267-147.5584s-107.0592-21.077333-159.419733 28.893867C493.7216 651.946667 476.450133 698.299733 484.027733 733.866667l-33.706667 0c-3.754667-54.9888 18.158933-108.629333 59.3408-145.2544 66.696533-64.6656 209.800533-30.856533 209.800533-30.856533L719.4112 557.7728zM468.599467 384.785067l68.949333 139.605333c-6.638933 1.262933-13.4144 2.833067-20.48 4.676267-4.590933 1.194667-8.789333 2.7648-13.124267 4.1984l-64.853333-131.413333L468.599467 384.785067zM378.8288 517.802667C333.585067 436.616533 403.319467 307.2 403.319467 307.2s143.086933 2.167467 188.330667 83.319467c22.340267 38.638933 31.4368 83.5072 25.9072 127.7952-11.6736-0.768-23.364267-0.768-35.037867 0 6.007467-37.290667-0.989867-75.52-19.8144-108.270933-34.7136-63.505067-139.025067-68.5056-139.025067-68.5056s-48.042667 97.962667-13.346133 161.450667c11.127467 20.753067 26.368 39.0144 44.782933 53.674667-9.454933 6.4512-18.295467 13.755733-26.385067 21.8624C408.490667 561.544533 391.560533 540.962133 378.8288 517.802667z" p-id="17289" fill="#f6ac49"></path></svg>