<?xml version="1.0" standalone="no"?><!DOCTYPE svg PUBLIC "-//W3C//DTD SVG 1.1//EN" "http://www.w3.org/Graphics/SVG/1.1/DTD/svg11.dtd"><svg t="1511751566464" class="icon" style="" viewBox="0 0 1024 1024" version="1.1" xmlns="http://www.w3.org/2000/svg" p-id="13614" xmlns:xlink="http://www.w3.org/1999/xlink" width="200" height="200"><defs><style type="text/css"></style></defs><path d="M883.490338 456.824353c-13.028735 0-26.058492 0-39.086204 0-33.999348 0-67.997674 0-101.997022 0-47.336098 0-94.672196 0-142.008294 0-53.04103 0-106.083084 0-159.124114 0-51.114145 0-102.228289 0-153.342434 0-41.554418 0-83.10986 0-124.664278 0-24.362874 0-48.725748 0-73.088622 0-3.350304 0-6.699586 0-10.04989 0-8.098445 0-13.944594 6.528694-14.326287 14.326287-3.904936 79.815837 15.569604 159.873174 55.860239 228.89313 38.092573 65.25419 94.511537 119.599935 160.862711 155.658176 17.168008 9.329483 35.07689 17.324574 53.353139 24.222681 8.91095 3.363607 18.409279 7.867178 28.061103 7.867178 15.032368 0 30.065759 0 45.099151 0 50.018184 0 100.037391 0 150.056598 0 13.926174 0 27.854395 0 41.781592 0 2.62171 0 5.090948-0.385786 7.638981-1.195222 8.972349-2.845815 17.829064-6.046716 26.577309-9.518794 18.150382-7.203052 35.821857-15.549138 52.823066-25.159006 65.766866-37.169551 120.931257-92.78829 157.90331-158.62474 37.814234-67.337641 55.762001-145.060817 51.996235-222.144426C897.435954 463.353047 891.587759 456.824353 883.490338 456.824353c-7.521301 0-14.70798 6.520507-14.326287 14.326287 1.042749 21.336958 0.454348 42.702568-1.816369 63.944358-0.246617 2.308579-0.523933 4.613064-0.811482 6.916527-0.075725 0.611937-0.602727 4.50664-0.094144 0.783853-0.155543 1.144056-0.322341 2.288113-0.48914 3.432169-0.717338 4.937452-1.550309 9.857509-2.452865 14.764262-1.723248 9.359158-3.822049 18.647709-6.215562 27.857465-2.369977 9.126868-5.107321 18.157545-8.124028 27.091008-1.439792 4.264117-2.970658 8.497535-4.555759 12.709463-0.789992 2.101871-1.607614 4.192485-2.434445 6.28003-0.412392 1.043772-0.833995 2.081405-1.255597 3.121084-0.255827 0.630357-2.167363 5.214768-0.705058 1.749854-7.223518 17.10968-15.719007 33.672914-25.258267 49.604768-4.746094 7.924483-9.797134 15.663748-15.078417 23.240307-2.53166 3.63069-5.136997 7.209192-7.786337 10.754948-0.661056 0.88516-1.331321 1.766226-2.000564 2.64627-2.270716 2.986007 1.841951-2.357697-0.460488 0.603751-1.584078 2.035356-3.195785 4.050246-4.817726 6.054903-11.583826 14.31503-24.205285 27.78174-37.633109 40.379663-6.719028 6.303566-13.679557 12.348236-20.814048 18.178011-1.713015 1.399883-3.444449 2.7793-5.179976 4.151553-0.457418 0.361227-3.421936 2.664689-0.593518 0.480954-0.87595 0.676405-1.759063 1.345648-2.64013 2.015913-3.824095 2.904143-7.711636 5.723352-11.637038 8.488325-15.157211 10.679223-31.090089 20.243043-47.571459 28.731368-8.29492 4.272303-16.756639 8.220219-25.329898 11.904121-3.498684 1.503237 2.798742-1.164522-0.718361 0.300852-1.038656 0.432859-2.079358 0.855484-3.122107 1.279133-2.085498 0.848321-4.181229 1.670036-6.281053 2.483564-4.561899 1.766226-9.162684 3.429099-13.785981 5.025457-2.139733 0.73985-4.287653 1.452071-6.440689 2.15406-1.832741 0.599657-5.860475 0.86674-0.543376 0.86674-0.285502 0-0.572028 0-0.858554 0-1.577938 0-3.155876 0-4.733814 0-16.807804 0-33.616632 0-50.424436 0-49.77873 0-99.55746 0-149.33619 0-11.912307 0-23.823592 0-35.735899 0-0.098237 0-0.195451 0-0.294712 0 4.445242 0 2.470261 0.110517 0.509606-0.517793-4.668323-1.49505-9.30083-3.095501-13.909801-4.762467-4.239558-1.531889-8.446369-3.15383-12.631692-4.828982-1.044796-0.417509-2.085498-0.844228-3.125177-1.269923-0.545422-0.224104-4.058432-1.699712-0.724501-0.289596-2.410909-1.020236-4.808516-2.074242-7.199982-3.14155-16.983813-7.580652-33.400714-16.412808-49.169863-26.269293-7.840572-4.900613-15.490809-10.104125-22.976294-15.532765-1.793856-1.300622-3.571339-2.622734-5.342682-3.953032-0.88516-0.664126-1.766226-1.337461-2.645247-2.00875-2.984984-2.279926 2.356674 1.839905-0.601704-0.471744-3.778046-2.951215-7.490601-5.985318-11.162224-9.06854-14.101159-11.847839-27.337625-24.713868-39.688931-38.372959-6.176676-6.830569-12.090363-13.897521-17.784038-21.134343-0.361227-0.459464-2.650363-3.430122-0.470721-0.595564-0.674359-0.87595-1.341554-1.759063-2.007727-2.64013-1.334391-1.766226-2.64627-3.546779-3.952009-5.333472-2.829442-3.874237-5.572926-7.809873-8.261151-11.783371-10.378371-15.335267-19.623943-31.428803-27.773554-48.053436-1.63729-3.341095-3.214205-6.711865-4.757351-10.096962-0.772596-1.694595-1.526773-3.399423-2.275833-5.105275-0.449231-1.02433-0.890276-2.052752-1.331321-3.081175-1.497097-3.491521 1.166569 2.801812-0.292666-0.706081-3.016707-7.262404-5.786797-14.624069-8.366551-22.052249-5.209652-15.000646-9.449209-30.333866-12.818957-45.849234-1.705851-7.854898-3.137457-15.767102-4.363378-23.711028-0.293689-1.902326-0.564865-3.808746-0.830925-5.715165 0.533143 3.826142-0.273223-2.223644-0.3776-3.085268-0.515746-4.235464-0.944512-8.480138-1.323135-12.728906-1.657756-18.556635-1.930979-37.22481-1.02126-55.82954-4.77577 4.77577-9.550517 9.550517-14.326287 14.326287 13.028735 0 26.057469 0 39.087227 0 33.998325 0 67.997674 0 101.995999 0 47.336098 0 94.672196 0 142.008294 0 53.04103 0 106.083084 0 159.124114 0 51.114145 0 102.228289 0 153.343457 0 41.554418 0 83.108836 0 124.663254 0 24.363897 0 48.725748 0 73.089645 0 3.349281 0 6.699586 0 10.048867 0 7.809873 0 14.326287-6.516414 14.326287-14.326287S891.30021 456.824353 883.490338 456.824353z" p-id="13615" fill="#ffffff"></path><path d="M358.614076 873.466542l246.390643 0 0 35.302017-246.390643 0 0-35.302017Z" p-id="13616" fill="#ffffff"></path><path d="M666.036747 469.346551c5.481851-8.316409 10.965749-16.631796 16.447601-24.948205 13.755282-20.863167 27.510564-41.727357 41.265846-62.590524 17.986653-27.282367 35.973306-54.565756 53.960982-81.848123 18.179035-27.574009 36.357046-55.146994 54.537104-82.721003 14.33038-21.73707 28.661783-43.473117 42.992163-65.210187 6.442736-9.771551 12.885472-19.543102 19.328207-29.314653 0.055259-0.083911 0.109494-0.166799 0.164752-0.25071 4.303003-6.52767 1.322112-15.816221-5.139044-19.600407-7.012717-4.107551-15.311731-1.367137-19.60143 5.139044-5.481851 8.316409-10.965749 16.631796-16.447601 24.948205-13.755282 20.863167-27.510564 41.727357-41.265846 62.590524-17.986653 27.282367-35.973306 54.565756-53.960982 81.848123-18.179035 27.574009-36.357046 55.146994-54.537104 82.721003-14.33038 21.73707-28.661783 43.473117-42.992163 65.210187-6.442736 9.771551-12.885472 19.543102-19.328207 29.314653-0.055259 0.083911-0.109494 0.166799-0.164752 0.25071-4.303003 6.52767-1.322112 15.816221 5.139044 19.600407C653.447011 478.594169 661.747048 475.853755 666.036747 469.346551L666.036747 469.346551z" p-id="13617" fill="#ffffff"></path><path d="M728.780767 478.381321c5.481851-8.316409 10.965749-16.631796 16.447601-24.948205 13.755282-20.863167 27.510564-41.727357 41.265846-62.590524 17.986653-27.282367 35.973306-54.565756 53.960982-81.848123 18.179035-27.574009 36.357046-55.146994 54.537104-82.721003 14.33038-21.73707 28.661783-43.473117 42.992163-65.210187 6.442736-9.771551 12.885472-19.543102 19.328207-29.314653 0.055259-0.083911 0.109494-0.166799 0.164752-0.25071 4.303003-6.52767 1.322112-15.816221-5.139044-19.600407-7.012717-4.107551-15.311731-1.367137-19.60143 5.139044-5.481851 8.316409-10.965749 16.631796-16.447601 24.948205-13.755282 20.863167-27.510564 41.727357-41.265846 62.590524-17.986653 27.282367-35.973306 54.565756-53.960982 81.848123-18.179035 27.574009-36.357046 55.146994-54.537104 82.721003-14.33038 21.73707-28.661783 43.473117-42.992163 65.210187-6.442736 9.771551-12.885472 19.543102-19.328207 29.314653-0.055259 0.083911-0.109494 0.166799-0.164752 0.25071-4.303003 6.52767-1.322112 15.816221 5.139044 19.600407C716.19103 487.627916 724.490044 484.887502 728.780767 478.381321L728.780767 478.381321z" p-id="13618" fill="#ffffff"></path><path d="M284.202319 415.558507c-0.008186 0 0 0-0.008186 0-35.623335 0-63.430658-0.151449-82.649372-0.449231-10.744715-0.166799-19.041682-0.38374-24.658609-0.644683-3.199878-0.149403-5.615904-0.315178-7.385201-0.50756-6.726192-0.730641-10.451026-3.553942-12.509918-6.568602-1.133823-0.595564-2.632967-1.326205-3.846608-1.917676-7.918343-3.860934-18.762319-9.147334-24.684192-18.676361-6.80294-10.948353-4.299933-21.379936-2.471284-28.995381 1.147126-4.77577 1.816369-7.849782 1.169639-10.734482-2.171456-9.685593 0.079818-15.899108 3.058662-20.603247-0.098237-0.208754-0.207731-0.435928-0.330528-0.682545-4.313236-8.626471-3.300162-15.717983-1.689479-20.147876 3.969405-10.92584 14.465456-15.488763 20.736277-18.21485 0.061398-0.026606 0.124843-0.054235 0.189312-0.082888 0.347924-0.533143 0.726547-1.105171 1.13894-1.728364 3.603061-5.449106 9.635451-14.569834 12.485359-24.070208 6.202259-20.672832 23.048949-21.149693 31.146371-21.378913 2.462075-0.069585 4.78805-0.1361 6.268774-0.558725 4.605901-1.315972 6.750751-2.814092 11.022031-5.798053 2.65855-1.856277 5.965875-4.166903 10.364045-6.680143 4.498454-2.570545 5.031597-3.616364 6.317892-6.14086 0.666172-1.307785 1.49505-2.934842 2.683109-4.715395 2.914376-4.371564 7.151887-7.328919 11.639085-10.458189 3.292999-2.298346 7.02602-4.901637 9.048073-7.429203 5.210675-6.513344 11.888771-9.816576 19.847024-9.816576 2.863211 0 5.451152 0.420579 7.733125 0.792039 1.904373 0.310062 3.548826 0.577145 5.095042 0.577145 3.201925 0 10.348696-4.004197 14.428617-8.083096 2.471284-2.471284 5.186116-4.408403 7.581676-6.117324 3.062755-2.184759 5.708002-4.072759 7.14677-6.472412 4.653997-7.757684 11.029194-10.723226 14.83794-12.494569 0.26913-0.125867 0.582261-0.271176 0.870834-0.408299 3.315512-5.329379 9.451256-9.513678 20.035312-13.748119 6.362918-2.544963 12.264325-4.240581 12.512988-4.311189l1.561565-0.446162 1.620917-0.084934c0.544399-0.028653 13.46057-0.701988 24.174586-0.701988 9.593496 0 13.050224 0.533143 15.355733 1.109264 7.499811 1.87572 12.059664 7.194866 15.07637 10.714016 0.509606 0.594541 1.205455 1.407046 1.718131 1.945305 8.921183 2.454912 23.51967 8.235568 26.493397 9.425673 0 0 0 0 0 0 0.013303 0 1.149173 0.340761 4.28663 0.340761 3.443425 0 7.460925-0.402159 11.005658-0.756223 3.263323-0.326435 6.081509-0.607844 8.549723-0.607844 9.771551 0 27.51875 4.490268 36.284391 20.701484 1.600451-0.447185 3.3984-1.047866 4.707209-1.485841 4.236488-1.416256 8.238638-2.75474 12.519128-2.75474 2.741437 0 5.019317 0.569982 6.819313 1.306762 2.125407-0.024559 5.415336-0.412392 8.600889-0.786922 4.113691-0.484024 8.367575-0.984421 12.160971-0.984421 3.378957 0 8.382924 0.340761 12.809747 3.292999 4.2897 2.860141 7.522324 7.477298 11.613502 13.322423 3.319605 4.743024 7.450692 10.645454 11.098779 13.684674 1.307785 1.089821 4.425799 1.666966 7.440459 2.224668 6.28924 1.163499 17.824971 3.298116 22.772656 14.953573 3.320629 3.102664 15.443737 8.04114 20.7373 10.19827 4.187369 1.705851 7.80271 3.178389 10.663874 4.641717 2.568499 1.312902 25.284873 13.284561 31.540344 28.922726 3.244904 8.112772 10.79895 42.274826-1.644453 59.694567-5.048993 7.067976-10.80816 9.965979-14.618952 11.883655-3.482311 1.7519-4.417613 2.222621-6.368034 8.558933-4.365424 14.187117-9.777691 20.421098-14.945387 25.588795-1.88186 1.88186-1.921769 2.001587-2.040473 2.356674-3.363607 10.090822-13.631462 29.27065-14.791891 31.42471l-4.009314 7.445576-8.456602 0.086981C612.078835 413.532361 414.653393 415.558507 284.202319 415.558507zM154.467559 399.208121c0.001023 0.639566 0.048095 1.248434 0.13303 1.826602C154.492118 400.231427 154.468582 399.591861 154.467559 399.208121zM176.125835 385.752668c8.748245 0.493234 34.257222 1.154289 108.068298 1.154289 114.788349 0 281.554514-1.571798 320.995805-1.960655 3.581572-7.024997 7.547907-15.269775 8.942673-19.453051 2.297322-6.891967 6.15007-10.744715 8.962116-13.556761 2.781346-2.781346 5.183046-5.183046 7.821129-13.753235 5.113461-16.622586 13.114692-21.825075 20.8734-25.728988 2.75781-1.387603 3.317559-1.731434 4.183276-2.943029 3.056616-4.764514 1.130753-25.460882-1.64343-32.397874-1.194198-2.517333-8.997931-9.461489-17.97949-14.053064-1.76725-0.903579-5.004991-2.222621-8.43102-3.618411-16.523325-6.732331-29.763884-12.80463-35.149545-22.974247-0.864694-0.187265-1.901303-0.379647-2.76088-0.538259-5.698792-1.054005-13.503549-2.49789-20.571525-8.387018-6.587022-5.487991-11.933797-13.127995-16.229636-19.266809-0.944512-1.348718-2.084475-2.977821-3.061732-4.303003-1.952468 0.140193-4.355191 0.422625-6.700609 0.698918-4.113691 0.484024-8.366551 0.983397-12.159948 0.984421-2.049682 0-4.695952-0.125867-7.448646-0.88209-0.853437 0.268106-1.827625 0.593518-2.593058 0.849344-4.76349 1.593288-10.69355 3.576455-16.883529 3.577478-9.989515 0.001023-18.053168-5.402033-21.570271-14.4542-2.551102-6.565533-11.533684-6.860245-11.622712-6.860245-1.039679 0-3.515057 0.24764-5.698792 0.466628-4.003174 0.400113-8.984628 0.898463-13.856589 0.898463-6.110161 0-10.853186-0.759293-14.927991-2.38942-8.448416-3.37998-19.48989-7.423063-24.246217-8.612145-7.500834-1.87572-12.060687-7.194866-15.077394-10.715039-0.420579-0.490164-0.968048-1.128707-1.433652-1.64036-1.270946-0.086981-3.5038-0.179079-7.243985-0.179079-7.816013 0-17.2335 0.403183-20.99722 0.580215-6.069229 1.863441-12.634762 4.558829-15.136745 6.211469-3.741207 6.134721-9.188266 8.668427-12.555967 10.235109-0.794086 0.369414-1.986237 0.924045-2.308579 1.183965-0.002047 0.00614-0.020466 0.032746-0.045025 0.073678-4.50971 7.515161-10.615779 11.872399-15.074324 15.053857-1.632173 1.165546-3.175319 2.2656-3.964288 3.054569-6.119371 6.119371-20.312628 16.47523-34.688034 16.47523-3.861958 0-7.097652-0.527003-9.697873-0.949628-0.48914-0.079818-1.027399-0.166799-1.528819-0.2415-4.438079 5.17179-9.766434 8.888438-14.103206 11.913331-1.528819 1.066285-3.568269 2.489704-4.437056 3.25616-0.215918 0.38067-0.468674 0.877997-0.74906 1.427512-2.885723 5.664-6.624884 11.719926-17.631566 18.009166-3.270487 1.868557-5.762237 3.609201-8.172123 5.29254-5.085832 3.551896-10.344602 7.225565-19.558451 9.857509-4.942569 1.412163-9.592472 1.543146-13.328563 1.64957-1.304715 0.036839-3.116991 0.088004-4.26207 0.226151-0.075725 0.199545-0.160659 0.446162-0.249687 0.744967-4.064572 13.546527-11.847839 25.317619-16.030092 31.640628-0.662079 1.000793-1.475608 2.230808-1.775436 2.734274-2.749624 5.51562-7.673773 7.656377-12.026918 9.549493-0.925069 0.402159-2.408863 1.046842-3.701299 1.699712 4.353145 9.901511 3.859911 17.644869-1.538029 25.405623 2.133593 9.518794 0.167822 17.709337-1.267876 23.689538-0.684592 2.854001-1.537006 6.404873-1.052982 7.18361 1.562589 2.515287 9.223059 6.250354 12.904914 8.045233C169.1387 381.391337 172.947446 383.249661 176.125835 385.752668z" p-id="13619" fill="#ffffff"></path></svg>