<?xml version="1.0" standalone="no"?><!DOCTYPE svg PUBLIC "-//W3C//DTD SVG 1.1//EN" "http://www.w3.org/Graphics/SVG/1.1/DTD/svg11.dtd"><svg t="1511751585318" class="icon" style="" viewBox="0 0 1024 1024" version="1.1" xmlns="http://www.w3.org/2000/svg" p-id="13914" xmlns:xlink="http://www.w3.org/1999/xlink" width="200" height="200"><defs><style type="text/css"></style></defs><path d="M382.0544 642.99008a10.24 10.24 0 0 1-10.24 10.24c-26.03008 0-73.5232-46.3872-93.36832-103.95648a10.21952 10.21952 0 0 1 6.36928-13.0048 10.19904 10.19904 0 0 1 13.02528 6.3488c18.67776 54.21056 61.62432 90.13248 73.97376 90.13248 5.69344 0 10.24 4.58752 10.24 10.24z m410.58304-17.46944a10.26048 10.26048 0 0 1-10.24 9.99424h-0.26624l-58.61376-1.39264 36.27008 28.44672a10.24 10.24 0 1 1-12.6976 16.11776l-48.20992-37.82656c-10.67008 33.46432-51.13856 50.50368-121.07776 50.50368-3.64544 0-7.35232-0.04096-11.24352-0.12288-37.53984-0.88064-75.89888-6.32832-107.68384-15.68768-15.44192 10.36288-30.39232 15.79008-44.1344 15.79008a49.7664 49.7664 0 0 1-19.1488-3.74784 36.12672 36.12672 0 0 1-5.59104-2.8672 40.26368 40.26368 0 0 1-5.59104 2.8672c-13.90592 5.7344-30.26944 4.77184-47.28832-2.90816-38.07232-17.16224-78.78656-67.60448-96.80896-119.9104-22.15936-64.06144-2.84672-114.05312 53.00224-137.17504 33.11616-13.70112 62.99648-10.97728 86.44608 7.2704v-92.01664a10.24 10.24 0 0 1 20.48 0v28.09856c5.71392-9.50272 13.59872-19.18976 24.35072-25.78432 10.28096-6.28736 22.54848-9.46176 36.43392-9.46176 15.68768 0 28.03712 4.15744 28.59008 4.32128a10.24 10.24 0 0 1 6.656 11.9808c-0.36864 1.59744-9.27744 39.56736-37.15072 56.66816-10.32192 6.28736-22.60992 9.46176-36.51584 9.46176-9.37984 0-17.18272-1.4336-22.36416-2.68288v19.39456c23.4496-18.28864 53.32992-20.992 86.44608-7.24992a114.2784 114.2784 0 0 1 29.42976 17.83808l-12.00128-58.92096c-0.18432-0.77824-0.02048-1.49504 0-2.2528a15.74912 15.74912 0 0 1-1.39264-6.26688c0-31.88736 90.624-33.50528 108.78976-33.50528s108.78976 1.61792 108.78976 33.50528a16.15872 16.15872 0 0 1-1.41312 6.3488c0 0.8192 0.12288 1.61792-0.08192 2.4576l-42.5984 187.31008c11.75552 8.25344 19.7632 18.41152 23.28576 30.78144l53.28896-34.816a10.24 10.24 0 0 1 11.1616 17.14176l-40.38656 26.39872 59.10528 1.39264a10.28096 10.28096 0 0 1 9.97376 10.50624zM410.54208 396.71808c3.46112 0.53248 7.61856 0.98304 12.12416 0.98304 10.07616 0 18.80064-2.1504 25.84576-6.4512 13.18912-8.06912 20.91008-23.7568 24.76032-33.97632a77.6192 77.6192 0 0 0-12.16512-1.024c-10.07616 0-18.75968 2.17088-25.76384 6.4512-13.1072 8.02816-20.93056 23.7568-24.80128 34.01728z m246.92736 167.34208l37.04832-162.7136c-28.24192 9.4208-71.12704 10.17856-83.00544 10.17856-11.96032 0-55.23456-0.75776-83.47648-10.3424l18.35008 90.07104a9.5232 9.5232 0 0 1-0.02048 4.096c3.31776 16.15872 2.51904 34.28352-2.31424 53.92384 4.62848-0.12288 9.23648-0.24576 13.88544-0.24576 3.91168 0 7.92576 0.04096 11.91936 0.16384 37.1712 0.88064 66.06848 6.00064 87.61344 14.86848z m-132.17792-186.01984c9.1136 5.3248 38.76864 13.0048 86.15936 13.0048 47.43168 0 77.08672-7.68 86.24128-13.0048-9.15456-5.34528-38.8096-13.02528-86.24128-13.02528-47.4112 0-76.98432 7.68-86.15936 13.02528z m-91.81184 288.48128c-29.45024-12.55424-48.80384-29.55264-48.29184-50.60608 0.83968-37.84704 65.31072-60.08832 137.60512-65.51552 18.432-62.75072-13.2096-91.136-43.90912-103.8336-23.32672-9.66656-56.2176-14.09024-80.52736 19.82464-0.14336 0.18432-0.34816 0.24576-0.47104 0.4096a10.07616 10.07616 0 0 1-7.84384 3.87072 10.09664 10.09664 0 0 1-7.82336-3.85024c-0.16384-0.18432-0.4096-0.22528-0.47104-0.4096-24.33024-33.91488-57.20064-29.4912-80.54784-19.84512-31.98976 13.23008-65.10592 43.3152-41.45152 111.57504 16.05632 46.73536 53.00224 93.14304 85.83168 107.95008 11.8784 5.38624 22.30272 6.28736 31.04768 2.64192 2.12992-0.88064 4.44416-2.29376 7.12704-4.4032a10.17856 10.17856 0 0 1 12.63616 0c2.68288 2.10944 4.99712 3.52256 7.10656 4.4032 9.68704 3.9936 20.31616 1.98656 29.98272-2.21184z m247.93088-43.64288c0.59392-26.03008-22.3232-42.55744-67.72736-49.50016l-0.63488 27.72992a10.24 10.24 0 0 1-10.24 9.99424h-0.24576a10.24 10.24 0 0 1-9.99424-10.48576l0.67584-29.696c-7.55712-0.6144-15.44192-1.08544-23.9616-1.26976a358.21568 358.21568 0 0 0-11.44832-0.16384c-4.23936 0-8.35584 0.12288-12.47232 0.2048l-0.67584 29.75744a10.24 10.24 0 0 1-10.24 10.01472h-0.24576a10.26048 10.26048 0 0 1-9.99424-10.48576l0.63488-28.32384c-14.76608 1.06496-28.52864 2.82624-41.0624 5.12l-0.65536 29.20448a10.24 10.24 0 0 1-10.24 10.01472h-0.24576a10.28096 10.28096 0 0 1-9.99424-10.48576l0.55296-24.20736c-35.65568 9.23648-57.32352 23.01952-57.58976 35.98336-0.47104 21.11488 60.7232 52.0192 161.44384 54.3744 75.61216 1.92512 113.60256-14.27456 114.36032-47.77984z" p-id="13915" fill="#ffffff"></path></svg>