<?xml version="1.0" standalone="no"?><!DOCTYPE svg PUBLIC "-//W3C//DTD SVG 1.1//EN" "http://www.w3.org/Graphics/SVG/1.1/DTD/svg11.dtd"><svg t="1512197212888" class="icon" style="" viewBox="0 0 1024 1024" version="1.1" xmlns="http://www.w3.org/2000/svg" p-id="4178" data-spm-anchor-id="a313x.7781069.0.i22." xmlns:xlink="http://www.w3.org/1999/xlink" width="100" height="100"><defs><style type="text/css"></style></defs><path d="M964.152889 647.964444a26.112 26.112 0 0 0-24.206222-16.099555h-278.954667c35.271111-24.405333 41.216-43.377778 44.8-63.857778l0.170667-0.938667c0.568889-3.185778 1.109333-6.570667 2.417777-10.183111 5.176889-14.222222 13.255111-24.263111 21.873778-34.986666 12.8-16.071111 27.335111-34.304 29.041778-63.715556 3.470222-64.768-32.682667-120.291556-87.978667-134.997333-12.259556-3.242667-27.534222-4.892444-45.312-4.892445-27.932444 0-57.856 4.010667-77.994666 7.025778-15.502222 2.360889-31.516444 4.807111-41.784889 4.807111-1.564444 0-3.185778-0.085333-5.290667-0.341333-0.398222-0.028444-35.925333-3.527111-58.083555-4.807111a221.696 221.696 0 0 0-13.681778-0.540445c-30.435556 0-53.504 11.576889-68.522667 34.446223-15.36-3.043556-28.928-6.058667-37.489778-7.936-5.745778-1.28-8.021333-1.792-9.102222-1.934223-14.990222-9.016889-22.101333-19.086222-29.667555-29.696-7.850667-11.235556-17.664-25.230222-36.636445-32.768a53.76 53.76 0 0 0-20.024889-3.640889c-14.449778 0-29.326222 4.835556-40.903111 13.255112-18.517333 13.425778-27.847111 34.616889-26.254222 59.704888 1.052444 16.412444 5.831111 26.453333 8.96 33.137778 2.360889 5.091556 2.360889 5.091556 1.877333 6.997334-0.540444 2.417778-4.067556 5.859556-9.386666 10.808888-6.968889 6.371556-18.631111 17.009778-29.838223 36.352-8.305778 17.322667-13.596444 45.511111-0.995555 67.726223 10.040889 17.578667 28.899556 27.619556 56.519111 29.809777 0.284444-0.028444 32.256-2.389333 46.677333-1.962666l9.728 0.597333 3.669334 0.256c7.253333 34.275556 37.319111 53.731556 61.496888 64.056889 18.887111 8.078222 45.283556 10.353778 75.804445 13.027556l1.877333 0.170666c27.904 2.474667 59.562667 5.290667 88.32 13.084445 2.474667 0.654222 4.892444 1.308444 7.253334 1.991111H69.347556a25.770667 25.770667 0 0 0-24.120889 16.071111 26.112 26.112 0 0 0 5.859555 28.814222c50.375111 50.375111 102.456889 102.4 160.739556 102.4h585.557333c58.510222 0 110.620444-52.195556 160.995556-102.656a26.311111 26.311111 0 0 0 5.774222-28.586667z m-664.007111-137.841777c5.176889-18.005333 13.880889-27.107556 47.189333-27.107556 6.513778 0 13.653333 0.455111 24.519111 1.109333l4.323556 0.256c15.303111-1.507556 27.932444-10.325333 33.792-23.580444 6.656-14.819556 3.868444-32.170667-7.651556-47.672889-4.096-5.347556-5.290667-10.496-3.612444-15.246222 6.4-18.119111 15.616-21.532444 30.407111-21.532445 3.783111 0 7.281778 0.199111 13.624889 0.568889 18.403556 1.052444 51.968 4.465778 52.252444 4.465778 14.734222 1.763556 36.152889-1.080889 60.757334-4.750222 18.773333-2.872889 46.478222-6.627556 70.257777-6.627556 12.970667 0 23.751111 1.137778 32.028445 3.356445 31.345778 8.277333 51.598222 42.012444 49.322666 81.92-0.654222 12.344889-6.542222 20.252444-17.777777 34.332444-9.216 11.434667-21.845333 27.050667-29.952 49.521778-2.787556 7.395556-3.982222 14.023111-5.034667 19.911111-1.877333 10.894222-2.901333 16.355556-24.832 31.232-13.283556 9.102222-25.827556 13.112889-40.760889 13.112889-18.062222 0-39.281778-6.115556-66.076444-13.852444a1571.982222 1571.982222 0 0 0-34.190223-9.728c-33.792-9.130667-68.522667-12.174222-99.185777-14.819556-23.836444-2.076444-48.526222-4.209778-59.875556-9.159111-37.916444-16.184889-33.28-32.512-29.525333-45.710222z m-133.632-19.256889c-4.238222-7.623111-1.706667-21.959111 1.649778-28.814222 7.082667-12.259556 14.734222-19.342222 21.617777-25.628445 8.362667-7.822222 17.891556-16.725333 21.248-31.232 3.669333-15.729778-1.194667-26.083556-4.750222-33.649778a42.695111 42.695111 0 0 1-5.176889-18.403555c-0.739556-10.894222 2.446222-19.029333 9.500445-24.177778 4.750222-3.413333 11.178667-5.404444 17.180444-5.404444 1.962667 0 3.726222 0.227556 4.807111 0.654222 7.452444 2.958222 11.292444 8.135111 18.688 18.574222 8.760889 12.401778 19.655111 27.818667 42.097778 41.159111 4.238222 2.645333 22.101333 7.139556 52.992 13.397333-0.768 11.377778 1.450667 22.755556 6.627556 33.848889a155.107556 155.107556 0 0 0-5.034667-0.085333c-53.333333 0-85.276444 21.162667-97.706667 64.625778a46.193778 46.193778 0 0 0-0.768 3.157333l-3.811555-0.284444c-3.328-0.227556-6.627556-0.455111-9.841778-0.568889a141.425778 141.425778 0 0 0-6.371556-0.142222c-0.341333 0-32.284444 0.398222-41.699555 2.275555v-0.142222c-10.979556-0.881778-18.318222-4.067556-21.248-9.159111z m630.897778 236.032H211.854222c-25.486222 0-54.328889-21.902222-77.767111-42.837334h741.176889c-23.495111 20.935111-52.366222 42.837333-77.852444 42.837334z" fill="#f6ac49" p-id="4179"></path></svg>