<?xml version="1.0" standalone="no"?><!DOCTYPE svg PUBLIC "-//W3C//DTD SVG 1.1//EN" "http://www.w3.org/Graphics/SVG/1.1/DTD/svg11.dtd"><svg t="1511751464056" class="icon" style="" viewBox="0 0 1024 1024" version="1.1" xmlns="http://www.w3.org/2000/svg" p-id="10805" xmlns:xlink="http://www.w3.org/1999/xlink" width="200" height="200"><defs><style type="text/css"></style></defs><path d="M337.323 288.085a51.2 51.2 0 0 1 0 72.534 19.797 19.797 0 0 0 28.074 28.074 91.05 91.05 0 0 0 0-128.597 51.2 51.2 0 0 1 0-72.533 19.797 19.797 0 0 0-28.074-28.075 90.965 90.965 0 0 0 0 128.597z m167.85 72.534a19.797 19.797 0 0 0 28.075 28.074 91.05 91.05 0 0 0 0-128.597 51.2 51.2 0 0 1 0-72.533 19.797 19.797 0 0 0-28.075-28.075 90.965 90.965 0 0 0 0 128.597 51.2 51.2 0 0 1 0 72.534z m160.427 0a19.797 19.797 0 0 0 28.075 28.074 91.05 91.05 0 0 0 0-128.597 51.2 51.2 0 0 1 0-72.533 19.797 19.797 0 0 0-28.075-28.16 90.965 90.965 0 0 0 0 128.597 51.2 51.2 0 0 1 0 72.619zM888.235 486.4l-2.902-19.541a17.067 17.067 0 0 0-17.066-14.592H162.645a17.067 17.067 0 0 0-17.066 14.592l-2.646 19.541a353.28 353.28 0 0 0-3.84 51.2A358.4 358.4 0 0 0 301.74 836.267l5.461 3.584a17.067 17.067 0 0 0 9.472 2.901h397.91a17.067 17.067 0 0 0 9.471-2.901l5.462-3.584A358.4 358.4 0 0 0 892.075 537.6a353.28 353.28 0 0 0-3.84-51.2z m-177.75 321.195l-1.109 0.768H321.792l-1.195-0.768A324.267 324.267 0 0 1 173.227 537.6a318.379 318.379 0 0 1 3.498-46.592l0.768-4.95h675.84l0.768 4.95A318.379 318.379 0 0 1 857.6 537.6a324.267 324.267 0 0 1-147.115 269.995z m-24.234 79.872H344.917a17.067 17.067 0 1 0 0 34.133h341.334a17.067 17.067 0 0 0 0-34.133z" fill="#ffffff" p-id="10806"></path></svg>