<?xml version="1.0" standalone="no"?><!DOCTYPE svg PUBLIC "-//W3C//DTD SVG 1.1//EN" "http://www.w3.org/Graphics/SVG/1.1/DTD/svg11.dtd"><svg t="1511751627424" class="icon" style="" viewBox="0 0 1024 1024" version="1.1" xmlns="http://www.w3.org/2000/svg" p-id="14773" xmlns:xlink="http://www.w3.org/1999/xlink" width="200" height="200"><defs><style type="text/css"></style></defs><path d="M854.36 613.097v44.532c-0.663 2.166-1.474 4.33-1.919 6.546-4.553 23.534-7.116 47.683-13.982 70.525-20.359 67.402-58.515 123.577-112.005 169.437-41.256 35.398-87.683 60.9-140.758 73.454-17.452 4.135-35.346 6.574-53.046 9.8H488.14c-2.167-0.667-4.383-1.677-6.596-1.823-46.995-2.929-91.525-15.164-133.3-36.509-78.969-40.222-135.93-100.112-161.949-186.271-5.539-18.413-7.852-37.713-11.693-56.619v-42.485c1.673-10.44 3.126-20.974 5.096-31.41 8.418-45.591 28.678-85.96 55.51-123.232 25.306-35.078 52.187-69.049 76.188-105.013 25.946-39.017 38.5-82.319 31.14-129.801-1.451-9.381-2.806-18.759-4.232-28.09 0.958-0.246 1.92-0.441 2.88-0.712 57.922 60.703 67.35 135.217 59.079 215.74 2.116-2.266 3.89-3.841 5.243-5.663 49.16-66.49 70.28-139.944 54.254-222.214-10.188-52.333-32.222-99.376-68.678-138.49-15.83-16.938-34.98-30.796-52.631-46.083h18.216c1.502 0.615 2.906 1.674 4.43 1.82 32.052 2.757 62.157 12.652 90.838 26.562 65.599 31.754 118.773 78.7 163.255 135.956 65.38 84.262 107.892 177.731 116.312 285.354 3.226 41.083-0.96 81.013-11.915 120.399-4.135 14.917-9.969 29.342-15.312 44.877 21.218-9.034 37.342-22.844 49.8-40.742 37.147-53.49 47.534-113.136 39.114-179.082 2.734 3.174 4.139 4.429 5.096 6.005 22.375 35.349 39.116 73.062 47.856 114.047 3.47 16.22 5.486 32.816 8.218 49.185m-349.946-78.43c-0.837 0.592-1.75 1.206-2.609 1.797-1.157 16.25-2.02 32.52-3.596 48.764-2.314 24.79-8.246 48.693-19.84 70.922-14.18 27.227-37.883 44.162-64.15 57.629-28.334 14.619-46.18 35.496-48.495 68.456-2.412 33.898 7.78 62.376 35.102 83.205 25.602 19.494 55.512 25.848 87.217 24.79 50.61-1.651 88.323-25.702 103.438-76.362 10.857-36.359 9.084-72.965 1.823-109.568-9.923-50.169-28.09-96.94-59.18-137.924-8.737-11.45-19.764-21.17-29.71-31.709" p-id="14774" fill="#ffffff"></path></svg>