<?xml version="1.0" standalone="no"?><!DOCTYPE svg PUBLIC "-//W3C//DTD SVG 1.1//EN" "http://www.w3.org/Graphics/SVG/1.1/DTD/svg11.dtd"><svg t="1511751501435" class="icon" style="" viewBox="0 0 1024 1024" version="1.1" xmlns="http://www.w3.org/2000/svg" p-id="12282" xmlns:xlink="http://www.w3.org/1999/xlink" width="200" height="200"><defs><style type="text/css"></style></defs><path d="M317.952 888.32c-1.536-11.776 29.696-7.168 45.056-15.872 1.536-1.024 2.56-1.536 4.096-2.56 1.536-37.376 1.536-80.384 0.512-124.928-2.048 2.048-4.608 3.584-7.168 5.12-14.848 8.704-57.344 3.584-58.368-2.048-1.536-11.776 29.696-7.168 45.056-15.872 8.192-4.608 14.848-10.24 19.968-13.312-1.024-38.4-3.072-77.824-6.144-116.736-3.072 4.096-7.68 8.192-12.8 10.752-14.848 8.704-57.344 3.584-58.368-2.048-1.536-11.776 29.696-7.168 45.056-15.872 11.264-6.656 19.456-13.824 24.576-15.872-1.536-16.896-2.56-33.28-4.096-49.664-2.048-22.016-3.584-44.032-5.632-65.536-3.584 4.608-8.192 8.704-13.312 11.776-14.848 8.704-57.856 3.584-58.368-2.048-1.536-11.776 29.696-7.168 45.056-15.872 11.776-6.656 19.968-14.336 25.088-15.872-3.584-42.496-7.68-81.408-15.36-114.688-3.584 4.608-8.704 9.216-13.824 12.288-14.848 8.704-57.344 3.584-58.368-2.048-1.536-11.776 29.696-7.168 45.056-15.872 9.216-5.632 16.896-11.776 22.016-14.336-4.608-14.336-9.728-27.136-16.384-37.888-9.728-15.872-38.912-22.528-74.752-21.504-4.608-8.704-12.8-15.36-23.04-19.968 1.024-10.24 1.024-20.48-1.024-30.72-14.848-67.584 15.36-159.232 15.36-159.232L175.616 40.96c0 0-19.456 86.016 8.704 156.16 3.072 7.68 4.608 17.408 4.608 26.624-1.024 0-1.536 0-2.56 0-2.56-11.776-5.632-23.04-11.264-33.792C138.24 119.296 130.048 9.728 130.048 9.728L81.92 25.6c0 0 26.624 114.176 62.976 174.08 5.12 8.704 8.704 18.944 10.752 30.208-1.024 0.512-1.536 0.512-2.56 1.024-10.24-37.888-81.92-127.488-81.92-127.488l-43.52 26.112c0 0 72.192 59.392 99.328 122.88-3.584 6.144-6.144 12.288-6.656 18.944-34.304 13.312-61.44 31.744-67.584 53.248-17.92 60.928 69.632 235.52 92.16 283.136 102.4 215.04 147.968 420.352 192.512 410.624 15.36-3.072 24.576-52.224 28.16-124.928C347.136 897.024 318.464 892.928 317.952 888.32zM282.624 877.568c-12.288-2.048-94.72-253.44-144.896-379.904-20.48-51.2-68.608-136.192-29.696-147.968 49.152-14.336 53.248 59.904 83.968 154.624C234.496 632.32 295.424 879.616 282.624 877.568z" p-id="12283" fill="#ffffff"></path><path d="M694.272 1008.128c16.896-1.536 37.376-8.192 47.616-20.48 10.24-12.288 4.608-21.504 11.264-29.696 9.216-11.264 41.984 6.656 57.344-4.608-7.68-8.704-28.672-8.704-33.28-10.24-7.168-2.56 3.072-15.872-0.512-18.944-6.656-5.12-29.184 7.68-33.792 7.168-5.632-1.024-11.264-18.432-15.872-18.944-4.096-1.024-10.24 7.168-14.336 6.144-10.752-3.072-20.992-18.432-22.528-16.384-3.072 6.144 6.144 18.944 26.624 36.864 10.24 9.216 9.216 19.456 6.656 27.136-6.144 18.432-16.896 9.216-34.304 9.728C681.984 975.36 703.488 994.816 694.272 1008.128z" p-id="12284" fill="#ffffff"></path><path d="M912.384 412.16c-47.616 45.568-87.552 128-103.936 181.248-15.872 51.712-67.584 170.496-79.36 191.488-11.776 20.992-41.984 64.512-44.544 87.04-1.024 7.168 2.56 13.824 8.704 20.48 0 0 0 0 0-0.512 1.536-2.048 11.776 13.312 22.528 16.384 4.096 1.024 10.24-7.168 14.336-6.144 4.096 1.024 9.728 17.92 15.36 18.432 4.608 0.512 26.624-13.312 38.912-5.12 3.584 2.56-6.656 16.384 1.024 18.944 4.608 1.536 19.456-0.512 27.648 8.192 13.824 0 25.6-6.144 32.256-24.064 13.312-37.376 11.776-76.8 21.504-105.984 9.728-29.184 30.208-129.024 33.792-150.528 6.144-36.864-2.56-121.856 9.216-167.936 2.048-7.168 13.312-32.256 22.016-59.904 6.656-21.504 79.36-52.224 68.096-78.848C976.896 378.368 930.304 395.264 912.384 412.16zM803.328 688.64c-0.512 10.752-11.776 92.16-16.384 107.52-4.608 14.848-22.016 70.144-26.112 75.264-5.632 7.168-27.648 3.584-31.232-10.24-3.584-12.8 20.48-38.912 35.328-79.872 7.168-19.968 15.872-57.856 32.256-102.912 6.656-18.432 16.896-75.264 26.624-72.704C826.368 606.72 804.352 671.232 803.328 688.64z" p-id="12285" fill="#ffffff"></path><path d="M758.784 480.256c14.848-92.16-92.16-121.856-101.888-218.624-2.048-20.992 22.016-98.304 35.84-133.12-17.408-3.072-36.864 37.888-36.864 37.888s0.512-51.712-6.144-62.976c-9.728 10.24-24.064 57.344-24.064 57.344s-14.848-48.128-30.72-48.128c7.68 53.76 6.144 117.76-3.072 135.68-41.472 83.456-153.6 78.848-169.472 178.176C414.72 471.04 430.08 542.208 531.968 573.44c-3.584 2.048-6.656 4.608-9.728 7.68-20.48 22.016-21.504 55.296-16.384 56.832 5.12 1.536 2.56-26.112 19.456-44.544 3.072-3.072 8.192-8.192 13.824-12.8 0.512 3.584 3.072 6.144 6.656 7.168 3.072 0.512 5.632-1.024 7.68-3.584 1.024 3.072 3.072 5.12 6.144 5.632 3.072 0.512 5.632-1.024 7.68-3.584 1.024 3.072 3.072 5.12 6.144 5.632 2.048 0.512 4.096-0.512 6.144-1.536 2.56 9.216 5.12 21.504 6.144 28.16 2.56 24.576-15.36 45.568-10.24 47.104 5.12 1.536 23.552-26.112 19.968-55.808-0.512-6.144-3.072-11.264-5.632-15.872 1.536 0 3.072-1.024 4.096-2.048 0.512 0.512 1.024 1.536 1.536 2.048 16.384 18.944 12.8 46.08 17.92 45.056 4.096-1.024 4.608-22.528-5.12-42.496 5.632 3.072 11.264 6.656 14.336 9.216 19.968 14.848 23.04 41.984 27.648 39.424 4.608-2.56-3.072-34.816-27.648-52.224-3.584-2.56-7.68-4.608-11.776-5.632 0 0 0 0 0 0 0 0 0 0 0 0C726.016 593.408 751.616 525.824 758.784 480.256zM542.72 489.984c-3.072 15.36-5.632 48.64 2.56 69.12-20.992-26.624-30.72-66.56-22.528-87.04 9.216-23.552 59.904-82.944 59.904-82.944S548.352 462.848 542.72 489.984zM560.128 372.224c-22.016 19.456-52.224 35.328-60.928 71.68-8.704 36.352 3.584 67.072 30.72 111.104C458.24 501.248 448.512 442.88 462.848 414.72c13.312-26.624 47.104-50.176 72.192-59.904 30.72-12.288 73.216-82.432 73.216-82.432S590.336 345.088 560.128 372.224zM638.464 317.44c0 0 10.24 65.024 33.28 96.768 17.92 24.064 37.376 40.96 35.84 71.68-1.536 41.984-24.576 80.896-93.184 91.136 39.424-18.944 70.144-53.248 72.192-82.944 2.56-29.696-9.728-49.664-22.528-69.632C637.44 382.464 638.464 317.44 638.464 317.44z" p-id="12286" fill="#ffffff"></path></svg>