<?xml version="1.0" standalone="no"?><!DOCTYPE svg PUBLIC "-//W3C//DTD SVG 1.1//EN" "http://www.w3.org/Graphics/SVG/1.1/DTD/svg11.dtd"><svg t="1513222559301" class="icon" style="" viewBox="0 0 1024 1024" version="1.1" xmlns="http://www.w3.org/2000/svg" p-id="3538" xmlns:xlink="http://www.w3.org/1999/xlink" width="100" height="100"><defs><style type="text/css"></style></defs><path d="M925.824 751.744" p-id="3539" fill="#f6ac49"></path><path d="M475.456 335.488" p-id="3540" fill="#f6ac49"></path><path d="M561.024 336.64" p-id="3541" fill="#f6ac49"></path><path d="M987.968 838.144l-308.992-136.64c-25.024-11.776-23.04-18.88-21.12-28.992 2.24-11.392 9.92-21.504 20.224-26.752 19.072-9.728 48.256-15.36 93.824-23.104l6.72-1.28c16.896-3.008 31.36-13.376 39.744-28.224 8.32-14.848 9.664-32.256 3.648-48.128-17.344-45.12-28.928-90.368-34.304-134.464-2.112-17.216-4.864-36.864-7.872-58.432-4.864-34.688-11.392-81.664-17.536-136.96-13.44-118.848-116.096-205.056-244.8-205.056-128.064 0-230.848 86.208-244.224 205.056-6.4 56.448-12.736 103.04-17.6 137.408C252.544 374.016 249.92 393.408 247.808 410.624 242.432 454.72 230.848 500.032 213.568 545.088c-6.144 15.808-4.864 33.28 3.52 48 8.384 14.976 22.848 25.28 39.808 28.224l6.912 1.28c45.504 7.872 74.368 13.248 93.632 23.104 10.368 5.504 18.176 15.616 20.352 26.752 1.984 10.24 3.52 17.472-20.224 28.736l-307.264 135.616-4.928 1.28c-9.536 5.632-27.84 19.392-27.84 49.344l0 84.224c0 14.4 9.344 42.112 55.616 42.112l889.088 0c40.832 0 51.52-18.88 51.52-42.112l0-84.224C1013.76 866.624 1005.312 848.256 987.968 838.144L987.968 838.144zM960.832 956.48 74.944 956.48l0-68.992c0-0.384 0-0.64 0-1.024l304.32-133.632c15.936-7.36 65.408-30.4 53.44-91.264C427.072 633.344 408.96 608.512 383.04 595.264 356.288 581.504 324.032 575.36 273.344 566.528L266.432 565.504c19.072-49.472 31.872-99.328 37.76-148.032C306.304 400.64 308.928 381.504 311.936 360.448 316.8 325.76 323.328 278.592 329.664 221.504c10.24-91.008 87.488-154.496 188.224-154.496 100.288 0 177.472 63.488 187.776 154.496 6.336 56 12.864 103.488 17.792 138.56 2.944 21.056 5.568 40.32 7.68 57.344 5.888 48.768 18.688 98.56 37.632 147.968l-6.656 1.152c-50.624 8.704-82.944 14.848-109.888 28.736-25.6 13.12-44.096 37.888-49.664 66.368-12.032 60.608 36.992 83.776 53.76 91.648l304.64 130.752L960.832 956.48 960.832 956.48z" p-id="3542" fill="#f6ac49"></path></svg>