<?xml version="1.0" standalone="no"?><!DOCTYPE svg PUBLIC "-//W3C//DTD SVG 1.1//EN" "http://www.w3.org/Graphics/SVG/1.1/DTD/svg11.dtd"><svg t="1512194093825" class="icon" style="" viewBox="0 0 1024 1024" version="1.1" xmlns="http://www.w3.org/2000/svg" p-id="2174" data-spm-anchor-id="a313x.7781069.0.i9." xmlns:xlink="http://www.w3.org/1999/xlink" width="100" height="100"><defs><style type="text/css"></style></defs><path d="M759.304024 65.91167c-2.424478-2.103548-2.687057-5.808827-0.577673-8.230387l48.320337-55.678379c2.106466-2.424478 5.808827-2.684139 8.230387-0.580591l10.646112 9.242774c2.424478 2.103548 2.687057 5.808827 0.577673 8.230387l-48.320337 55.678379c-2.106466 2.424478-5.805909 2.684139-8.230387 0.580591L759.304024 65.91167z" p-id="2175" fill="#ffffff"></path><path d="M98.50109 827.261869c-2.424478-2.109383-2.687057-5.811744-0.583508-8.233305l104.299224-120.167737c2.103548-2.42156 5.808827-2.684139 8.233305-0.574756l10.64903 9.242774c2.424478 2.103548 2.684139 5.805909 0.583508 8.22747l-104.299224 120.167737c-2.103548 2.42156-5.805909 2.684139-8.230387 0.580591L98.50109 827.261869z" p-id="2176" fill="#ffffff"></path><path d="M587.236125 235.578431c-18.176289-15.778069-20.142713-43.558908-4.364643-61.738115l27.728323-31.950007c15.775152-18.176289 43.561826-20.142713 61.735198-4.364643l38.955026 33.808482c18.173372 15.778069 20.139795 43.558908 4.361726 61.738115l-27.728323 31.950007c-15.775152 18.176289-43.558908 20.142713-61.73228 4.364643L587.236125 235.578431z" p-id="2177" fill="#ffffff"></path><path d="M428.17463 418.838023c-18.176289-15.778069-20.142713-43.558908-4.364643-61.735198l27.728323-31.950007c15.778069-18.176289 43.558908-20.142713 61.738115-4.364643l38.955026 33.808482c18.173372 15.778069 20.139795 43.558908 4.364643 61.735198l-27.728323 31.950007c-15.780987 18.176289-43.561826 20.142713-61.741033 4.364643L428.17463 418.838023z" p-id="2178" fill="#ffffff"></path><path d="M513.708221 280.231418c-7.270516-6.310644-8.058252-17.423563-1.747608-24.694079l10.485647-12.078626c6.310644-7.270516 17.423563-8.058252 24.694079-1.747608l78.61318 68.232564c7.270516 6.310644 8.058252 17.423563 1.747608 24.694079l-10.48273 12.081543c-6.310644 7.270516-17.426481 8.055335-24.694079 1.74469L513.708221 280.231418z" p-id="2179" fill="#ffffff"></path><path d="M354.649644 463.493927c-7.270516-6.310644-8.055335-17.423563-1.74469-24.694079l10.48273-12.078626c6.310644-7.270516 17.423563-8.055335 24.694079-1.74469l78.61318 68.229647c7.270516 6.310644 8.058252 17.423563 1.747608 24.694079l-10.485647 12.081543c-6.310644 7.264681-17.423563 8.058252-24.694079 1.74469L354.649644 463.493927z" p-id="2180" fill="#ffffff"></path><path d="M269.116053 602.09178c-18.176289-15.772234-20.142713-43.558908-4.364643-61.729362l27.728323-31.952925c15.778069-18.176289 43.558908-20.142713 61.735198-4.364643l38.952109 33.808482c18.176289 15.778069 20.142713 43.558908 4.364643 61.735198l-27.728323 31.950007c-15.778069 18.176289-43.558908 20.136878-61.735198 4.364643L269.116053 602.09178z" p-id="2181" fill="#ffffff"></path><path d="M195.591066 646.750602c-7.270516-6.307727-8.058252-17.426481-1.747608-24.691161l10.485647-12.081543c6.310644-7.270516 17.423563-8.064087 24.694079-1.750525l78.61318 68.232564c7.270516 6.313562 8.055335 17.426481 1.74469 24.696997l-10.48273 12.081543c-6.310644 7.264681-17.423563 8.058252-24.694079 1.750525L195.591066 646.750602z" p-id="2182" fill="#ffffff"></path><path d="M672.763881 96.968909c-7.267598-6.310644-8.058252-17.423563-1.747608-24.694079l10.485647-12.078626c6.307727-7.273433 17.426481-8.058252 24.694079-1.747608l78.610263 68.232564c7.270516 6.310644 8.058252 17.423563 1.750525 24.694079L776.068223 163.453865c-6.307727 7.270516-17.423563 8.058252-24.694079 1.747608L672.763881 96.968909z" p-id="2183" fill="#ffffff"></path><path d="M924.617813 570.591075c-1.391668-2.888367-0.1663-6.392335 2.73082-7.789838l66.423688-31.985018c2.891285-1.391668 6.395253-0.1663 7.789838 2.724985l6.121004 12.705897c1.397503 2.888367 0.169217 6.392335-2.727902 7.789838l-66.423688 31.985018c-2.891285 1.397503-6.398171 0.172135-7.789838-2.73082L924.617813 570.591075z" p-id="2184" fill="#ffffff"></path><path d="M16.322672 1007.989034c-1.394585-2.888367-0.1663-6.392335 2.724985-7.784003l143.362199-69.040724c2.891285-1.397503 6.395253-0.1663 7.786921 2.73082l6.118086 12.70298c1.391668 2.894202 0.1663 6.392335-2.724985 7.789838L30.22768 1023.42575c-2.891285 1.391668-6.395253 0.1663-7.789838-2.73082L16.322672 1007.989034z" p-id="2185" fill="#ffffff"></path><path d="M699.421466 658.242801c-10.444802-21.68901-1.248708-47.97315 20.440302-58.417952l38.111857-18.354259c21.68901-10.444802 47.970232-1.242873 58.412117 20.440302l22.37755 46.476451c10.444802 21.68901 1.242873 47.967315-20.44322 58.412117l-38.111857 18.354259c-21.68901 10.444802-47.970232 1.242873-58.412117-20.440302L699.421466 658.242801z" p-id="2186" fill="#ffffff"></path><path d="M480.792508 763.525237c-10.444802-21.68901-1.242873-47.97315 20.44322-58.417952l38.114774-18.354259c21.68901-10.444802 47.970232-1.242873 58.412117 20.440302l22.37755 46.476451c10.444802 21.68901 1.248708 47.967315-20.440302 58.412117l-38.111857 18.354259c-21.68901 10.444802-47.97315 1.248708-58.415034-20.440302L480.792508 763.525237z" p-id="2187" fill="#ffffff"></path><path d="M614.22631 670.125952c-4.180838-8.673854-0.4989-19.185759 8.174954-23.369515l14.406824-6.934998c8.676771-4.183756 19.188676-0.501817 23.369515 8.177871l45.160639 93.787319c4.180838 8.673854 0.501817 19.185759-8.177871 23.36368l-14.406824 6.940833c-8.676771 4.183756-19.188676 0.495982-23.369515-8.177871L614.22631 670.125952z" p-id="2188" fill="#ffffff"></path><path d="M395.591516 775.411305c-4.177921-8.679689-0.4989-19.191594 8.177871-23.369515l14.409742-6.940833c8.673854-4.177921 19.191594-0.495982 23.366597 8.177871l45.163557 93.787319c4.177921 8.673854 0.495982 19.185759-8.177871 23.36368l-14.409742 6.940833c-8.673854 4.177921-19.188676 0.495982-23.366597-8.177871L395.591516 775.411305z" p-id="2189" fill="#ffffff"></path><path d="M262.157714 868.807673c-10.441884-21.68901-1.242873-47.97315 20.44322-58.412117l38.114774-18.354259c21.686093-10.444802 47.97315-1.248708 58.417952 20.440302l22.37755 46.470616c10.444802 21.68901 1.245791 47.97315-20.440302 58.417952l-38.114774 18.354259c-21.686093 10.444802-47.97315 1.248708-58.417952-20.440302L262.157714 868.807673z" p-id="2190" fill="#ffffff"></path><path d="M176.962558 880.69374c-4.177921-8.679689-0.495982-19.191594 8.177871-23.369515l14.409742-6.940833c8.676771-4.177921 19.191594-0.495982 23.366597 8.177871l45.163557 93.787319c4.177921 8.679689 0.495982 19.191594-8.177871 23.369515l-14.409742 6.940833c-8.676771 4.177921-19.191594 0.495982-23.366597-8.183706L176.962558 880.69374z" p-id="2191" fill="#ffffff"></path><path d="M832.852351 564.843516c-4.180838-8.673854-0.495982-19.185759 8.180789-23.36368l14.406824-6.940833c8.679689-4.177921 19.188676-0.495982 23.369515 8.177871l45.160639 93.787319c4.177921 8.679689 0.4989 19.191594-8.177871 23.369515l-14.409742 6.940833c-8.673854 4.183756-19.191594 0.495982-23.366597-8.177871L832.852351 564.843516z" p-id="2192" fill="#ffffff"></path></svg>